<svg width="21" height="21" viewBox="0 0 21 21" fill="none" xmlns="http://www.w3.org/2000/svg">
<g clip-path="url(#clip0_22_188)">
<path d="M10.6163 5.36974C7.95616 5.36974 5.80929 7.51662 5.80929 10.1768C5.80929 12.837 7.95616 14.9838 10.6163 14.9838C13.2765 14.9838 15.4233 12.837 15.4233 10.1768C15.4233 7.51662 13.2765 5.36974 10.6163 5.36974ZM10.6163 13.301C8.89601 13.301 7.4921 11.8971 7.4921 10.1768C7.4921 8.45646 8.89601 7.05255 10.6163 7.05255C12.3366 7.05255 13.7405 8.45646 13.7405 10.1768C13.7405 11.8971 12.3366 13.301 10.6163 13.301ZM15.6202 4.05255C14.9991 4.05255 14.4976 4.55412 14.4976 5.17521C14.4976 5.7963 14.9991 6.29787 15.6202 6.29787C16.2413 6.29787 16.7429 5.79865 16.7429 5.17521C16.7431 5.02773 16.7141 4.88166 16.6578 4.74537C16.6014 4.60908 16.5188 4.48525 16.4145 4.38096C16.3102 4.27668 16.1863 4.19399 16.0501 4.13764C15.9138 4.08128 15.7677 4.05237 15.6202 4.05255ZM19.9866 10.1768C19.9866 8.88302 19.9983 7.60099 19.9257 6.30959C19.853 4.80959 19.5108 3.47834 18.414 2.38146C17.3147 1.28224 15.9858 0.942397 14.4858 0.86974C13.1921 0.797084 11.9101 0.808803 10.6187 0.808803C9.32491 0.808803 8.04288 0.797084 6.75148 0.86974C5.25148 0.942397 3.92023 1.28459 2.82335 2.38146C1.72413 3.48068 1.38429 4.80959 1.31164 6.30959C1.23898 7.60334 1.2507 8.88537 1.2507 10.1768C1.2507 11.4682 1.23898 12.7526 1.31164 14.044C1.38429 15.544 1.72648 16.8753 2.82335 17.9721C3.92257 19.0713 5.25148 19.4112 6.75148 19.4838C8.04523 19.5565 9.32726 19.5448 10.6187 19.5448C11.9124 19.5448 13.1944 19.5565 14.4858 19.4838C15.9858 19.4112 17.3171 19.069 18.414 17.9721C19.5132 16.8729 19.853 15.544 19.9257 14.044C20.0007 12.7526 19.9866 11.4706 19.9866 10.1768ZM17.9241 15.7034C17.753 16.1299 17.5468 16.4487 17.2163 16.7768C16.8858 17.1073 16.5694 17.3135 16.1429 17.4846C14.9101 17.9745 11.9827 17.8643 10.6163 17.8643C9.24991 17.8643 6.32023 17.9745 5.08742 17.487C4.66085 17.3159 4.3421 17.1096 4.01398 16.7792C3.68351 16.4487 3.47726 16.1323 3.30617 15.7057C2.81867 14.4706 2.92882 11.5432 2.92882 10.1768C2.92882 8.81037 2.81867 5.88068 3.30617 4.64787C3.47726 4.2213 3.68351 3.90255 4.01398 3.57443C4.34445 3.2463 4.66085 3.03771 5.08742 2.86662C6.32023 2.37912 9.24991 2.48927 10.6163 2.48927C11.9827 2.48927 14.9124 2.37912 16.1452 2.86662C16.5718 3.03771 16.8905 3.24396 17.2187 3.57443C17.5491 3.9049 17.7554 4.2213 17.9265 4.64787C18.414 5.88068 18.3038 8.81037 18.3038 10.1768C18.3038 11.5432 18.414 14.4706 17.9241 15.7034Z" fill="white"/>
</g>
<defs>
<clipPath id="clip0_22_188">
<rect width="20" height="20" fill="white" transform="translate(0.616211 0.176758)"/>
</clipPath>
</defs>
</svg>
