<svg width="26" height="26" viewBox="0 0 26 26" fill="none" xmlns="http://www.w3.org/2000/svg">
<g clip-path="url(#clip0_22_169)">
<path d="M13.4463 0.176758C8.45383 0.176758 4.39221 4.23838 4.39221 9.23076C4.39221 15.4265 12.4947 24.5221 12.8397 24.9063C13.1637 25.2672 13.7294 25.2666 14.0529 24.9063C14.3978 24.5221 22.5003 15.4265 22.5003 9.23076C22.5002 4.23838 18.4386 0.176758 13.4463 0.176758ZM13.4463 13.7861C10.9344 13.7861 8.89099 11.7426 8.89099 9.23076C8.89099 6.71895 10.9345 4.67549 13.4463 4.67549C15.958 4.67549 18.0015 6.71899 18.0015 9.23081C18.0015 11.7426 15.958 13.7861 13.4463 13.7861Z" fill="white"/>
</g>
<defs>
<clipPath id="clip0_22_169">
<rect width="25" height="25" fill="white" transform="translate(0.946289 0.176758)"/>
</clipPath>
</defs>
</svg>
