<svg width="26" height="26" viewBox="0 0 26 26" fill="none" xmlns="http://www.w3.org/2000/svg">
<g clip-path="url(#clip0_22_162)">
<path d="M1.00028 19.5472C1.07099 19.3341 1.52087 19.0203 2.34961 18.6063C2.57411 18.4759 2.89401 18.2985 3.30794 18.0736C3.72225 17.8487 4.09831 17.6414 4.43544 17.452C4.77325 17.2626 5.08973 17.0791 5.38544 16.9018C5.4327 16.8663 5.58065 16.7629 5.82922 16.5909C6.07804 16.4194 6.28787 16.2921 6.45983 16.2091C6.63141 16.1265 6.80019 16.085 6.96592 16.085C7.20262 16.085 7.49826 16.2538 7.85324 16.5909C8.20822 16.9285 8.53384 17.2951 8.82961 17.692C9.12545 18.0887 9.43919 18.4554 9.77029 18.7928C10.1019 19.1303 10.3743 19.2989 10.5871 19.2989C10.694 19.2989 10.8272 19.2691 10.9868 19.2103C11.1464 19.1512 11.2678 19.1005 11.3511 19.0596C11.4337 19.0179 11.5755 18.9353 11.7768 18.8106C11.9786 18.6863 12.0908 18.6182 12.1144 18.6063C13.736 17.7065 15.1267 16.6767 16.2869 15.517C17.4466 14.3567 18.4766 12.9661 19.3762 11.3443C19.388 11.3206 19.4562 11.2081 19.5804 11.007C19.7048 10.8057 19.7877 10.6638 19.8291 10.5807C19.8705 10.498 19.9208 10.3766 19.9799 10.2168C20.039 10.057 20.0687 9.92394 20.0687 9.81729C20.0687 9.60435 19.8999 9.33196 19.5626 9.00049C19.2252 8.66921 18.8582 8.3554 18.4618 8.05969C18.0651 7.76398 17.6984 7.43836 17.361 7.08338C17.0237 6.72822 16.855 6.43245 16.855 6.19576C16.855 6.03014 16.8964 5.8613 16.9792 5.68972C17.0621 5.51777 17.1893 5.30794 17.361 5.05924C17.5328 4.81067 17.6363 4.66285 17.6719 4.61527C17.8492 4.31956 18.0325 4.00296 18.2221 3.66558C18.4117 3.32827 18.6187 2.95227 18.8437 2.53803C19.0685 2.12397 19.246 1.80425 19.3763 1.57938C19.7904 0.750952 20.104 0.30095 20.3171 0.230178C20.4 0.194668 20.5244 0.176758 20.6899 0.176758C21.0097 0.176758 21.4269 0.235838 21.9417 0.354371C22.4568 0.472717 22.8621 0.596847 23.158 0.727258C23.7499 0.975704 24.3772 1.69772 25.0401 2.89306C25.6438 4.00551 25.9456 5.10657 25.9456 6.19544C25.9456 6.51479 25.9249 6.82548 25.8835 7.1276C25.8421 7.42941 25.7681 7.76977 25.6614 8.14862C25.5549 8.52736 25.4691 8.8087 25.4041 8.99191C25.3391 9.17525 25.2178 9.50367 25.0402 9.9773C24.8628 10.4508 24.7562 10.7407 24.7207 10.8472C24.3064 12.0073 23.8152 13.0429 23.2471 13.9544C22.3124 15.4695 21.0368 17.0352 19.4211 18.651C17.8054 20.2667 16.24 21.5422 14.7248 22.4773C13.8134 23.0453 12.7774 23.5365 11.6175 23.9511C11.5109 23.9864 11.221 24.0928 10.7477 24.2708C10.2742 24.4483 9.94566 24.5696 9.76233 24.6347C9.57893 24.6999 9.29753 24.7858 8.9191 24.8925C8.53987 24.9991 8.19982 25.0731 7.89802 25.1149C7.59603 25.1557 7.28526 25.1768 6.96586 25.1768C5.87705 25.1768 4.77592 24.8748 3.66329 24.2712C2.46807 23.6085 1.74624 22.9811 1.49767 22.3888C1.36695 22.0932 1.24313 21.6877 1.12479 21.1727C1.00607 20.6579 0.947111 20.2408 0.947111 19.9211C0.946737 19.7548 0.964586 19.6308 1.00028 19.5472Z" fill="white"/>
</g>
<defs>
<clipPath id="clip0_22_162">
<rect width="25" height="25" fill="white" transform="translate(0.946228 0.176758)"/>
</clipPath>
</defs>
</svg>
