<svg width="26" height="26" viewBox="0 0 26 26" fill="none" xmlns="http://www.w3.org/2000/svg">
<path d="M13.4463 1.73926C7.40625 1.73926 2.50879 6.63672 2.50879 12.6768C2.50879 18.7168 7.40625 23.6143 13.4463 23.6143C19.4863 23.6143 24.3838 18.7168 24.3838 12.6768C24.3838 6.63672 19.4863 1.73926 13.4463 1.73926ZM13.4463 21.7588C8.43164 21.7588 4.36426 17.6914 4.36426 12.6768C4.36426 7.66211 8.43164 3.59473 13.4463 3.59473C18.461 3.59473 22.5284 7.66211 22.5284 12.6768C22.5284 17.6914 18.461 21.7588 13.4463 21.7588Z" fill="white"/>
<path d="M17.7114 15.7676L14.2299 13.2505V7.20801C14.2299 7.10059 14.1421 7.0127 14.0346 7.0127H12.8604C12.753 7.0127 12.665 7.10059 12.665 7.20801V13.9317C12.665 13.9951 12.6943 14.0537 12.7456 14.0903L16.7837 17.0347C16.8716 17.0981 16.9937 17.0786 17.0571 16.9932L17.7554 16.041C17.8189 15.9507 17.7993 15.8286 17.7114 15.7676Z" fill="white"/>
</svg>
